<svg xmlns="http://www.w3.org/2000/svg" version="1.1" xmlns:xlink="http://www.w3.org/1999/xlink" xmlns:svgjs="http://svgjs.dev/svgjs" width="1000" height="1125" viewBox="0 0 1000 1125"><g transform="matrix(1,0,0,1,1.7053025658242404e-13,0)"><svg viewBox="0 0 320 360" data-background-color="#ff5858" preserveAspectRatio="xMidYMid meet" height="1125" width="1000" xmlns="http://www.w3.org/2000/svg" xmlns:xlink="http://www.w3.org/1999/xlink"><g id="tight-bounds" transform="matrix(1,0,0,1,0,0)"><svg viewBox="0 0 320 360" height="360" width="320"><g><svg></svg></g><g><svg viewBox="0 0 320 360" height="360" width="320"><g><path xmlns="http://www.w3.org/2000/svg" d="M20.961 227.22l3.726 4.658-1.863-6.056c-0.466-2.795-3.726 0.466-1.863 1.398M25.153 224.425c1.397 2.329 2.795 4.658 2.795 6.987 0 3.261 2.795 4.658 5.123 5.589-3.261-3.726-5.124-13.974-7.918-12.576M204.017 26.929c7.918 0 15.371-0.932 23.756 0.931 20.495 5.124 37.729 15.371 49.374 29.811l32.606 52.169c1.397 13.042 4.192 27.482 3.726 43.319 3.261 0 2.795-4.658 6.521-5.59-3.726 9.316-5.59 20.961-6.521 34.469-2.329-7.453 0-18.632 0.466-24.687-3.261 5.124-5.124 1.397-5.124-0.932 0.466-3.726-1.397-3.261-2.795-4.658-5.124-4.658-8.384-9.782-12.11-17.7 2.329-6.055 2.795-14.905-4.658-19.563-2.329-1.397-5.124-3.726-6.521-7.453-1.863-5.124-5.124-11.179-4.193-19.097 0.466-2.329-6.987 5.124-11.179 1.863-18.166-12.576-36.332-27.016-58.224-39.127-11.645 0-20.029-4.192-24.221-9.316-3.726-4.658-0.932-10.713 4.658-11.179 3.261 0 6.987-0.932 9.782 0.932 0.466-1.863 2.329-4.192 4.657-4.192M157.904 16.215l0.932 0.466c4.658 0.932 6.987 7.453 12.11 5.124 0 3.261 0.466 6.521-0.466 8.85-1.397 3.726-5.59 3.726-8.85 3.726-31.208-1.863-49.374 11.179-68.471 22.358-5.124 3.261-10.713 5.59-14.906 9.782-20.029 18.632-41.921 35.866-47.045 70.335l-4.192 38.195c-0.466 4.192-5.124 8.384-4.192 13.508l3.26 22.824c-3.261-3.261-5.124 0.932-4.192 2.795 0.466 1.397 2.329 6.055 5.124 1.863 3.726 6.987 7.453 20.495 12.576 26.55 15.837 18.632 36.332 35.4 53.101 52.169 4.192-0.932 7.453-0.932 8.384-3.727 1.397 2.795-1.397 5.59-3.726 6.056 7.453 4.658 15.837 8.85 27.016 9.781 14.44 0.932 27.948 3.261 40.524 6.522 6.521-1.863 13.042-2.795 20.029-3.261 2.329 0 3.726-3.726 6.521-4.658l0.466-4.658c2.795 4.192 2.329-1.397 0.466-4.192 3.261 2.795 4.192 5.124 5.589 6.987 0-1.397 3.726-6.521 3.727-0.466l0.931-6.055c1.397-0.932 1.863 5.124 3.261 0.931 1.397-4.192 4.192-0.932 6.987-2.329-0.932 1.863-0.466 5.59 2.794 3.261l3.727-3.261c2.329 5.59 6.055 3.261 7.918 2.329 20.495-13.042 40.99-28.413 60.553-43.784l-0.466 6.055 2.329-7.453c2.329 2.329 4.192 0.466 5.124-0.931 2.795-4.658 6.521-9.316 12.577-13.508-7.453 20.029-16.303 35.866-27.482 48.908l-4.658 5.59c0 3.261-0.932 7.453-4.658 7.918-1.863 0.466-5.59-0.932-8.384 1.863-1.397 1.863 3.261 5.59-0.466 2.795-3.261-2.329-6.521 0-10.248 0.932-2.795 0.932 1.863 3.726 2.795 5.589 0.932 1.863 1.863 3.726 1.398 6.056l-5.124-5.59c-6.055 3.261-9.782 9.316-14.906 13.974-2.329 1.863-1.397 5.124-1.397 7.918-3.261 0-6.987-0.932-8.85 0.932-1.397 1.863-0.932 4.658-0.932 7.453-4.658-0.466-5.124-7.453-9.315-6.056-4.192 0.932-8.85 1.397-12.577 3.727 2.795 5.59-4.658 2.329-3.726 3.26-6.987-4.192-13.042-7.453-20.495-4.658-15.837-5.124-35.4-2.795-49.84-0.931 0-2.329 0.466-4.658-0.466-5.124-0.932 2.329-3.726 1.397-3.26 1.397-8.85-6.055-17.7-9.782-27.016-14.905-8.384 0.932-16.303-3.261-18.632-5.59-6.521-6.055-13.974-2.795-20.029-4.192-13.042-3.261-17.7-16.769-19.098-26.084-0.932-4.658-4.658-6.521-6.055-6.056-6.055-19.563-15.371-37.263-22.824-55.429-1.863-4.658-1.397-9.316-1.397-14.44 2.329 0.932 4.658 0.466 4.192-2.794-2.329-15.371-7.918-27.016-13.974-38.195 3.261-15.837 3.726-34.469 11.179-48.443 6.521-12.576 18.632-19.098 27.016-29.811 2.795-3.726 2.795-8.85 5.59-12.11 9.316-9.316 18.632-19.098 28.879-27.482 4.658-3.726 10.247 0 17.234-1.397 2.329-8.384 11.645-15.837 20.495-13.508 3.726 0.932 11.179-8.85 13.508-9.782 3.726-1.397 1.863 3.726 1.863 6.987 8.85-6.987 20.961-10.713 32.14-14.906" fill="#000000" fill-rule="nonzero" stroke="none" stroke-width="1" stroke-linecap="butt" stroke-linejoin="miter" stroke-miterlimit="10" stroke-dasharray="" stroke-dashoffset="0" font-family="none" font-weight="none" font-size="none" text-anchor="none" style="mix-blend-mode: normal" data-fill-palette-color="tertiary"></path></g><g transform="matrix(1,0,0,1,64.00000000000001,143.0962343096234)"><svg viewBox="0 0 191.99999999999997 73.80753138075315" height="73.80753138075315" width="191.99999999999997"><g><svg viewBox="0 0 191.99999999999997 73.80753138075315" height="73.80753138075315" width="191.99999999999997"><g><svg viewBox="0 0 191.99999999999997 73.80753138075315" height="73.80753138075315" width="191.99999999999997"><g><svg viewBox="0 0 191.99999999999997 73.80753138075315" height="73.80753138075315" width="191.99999999999997"><g id="textblocktransform"><svg viewBox="0 0 191.99999999999997 73.80753138075315" height="73.80753138075315" width="191.99999999999997" id="textblock"><g><svg viewBox="0 0 191.99999999999997 73.80753138075315" height="73.80753138075315" width="191.99999999999997"><g transform="matrix(1,0,0,1,0,0)"><svg width="191.99999999999997" viewBox="1.7000000476837158 -36.04999923706055 95.60000610351562 36.75" height="73.80753138075315" data-palette-color="#ffffff"><path d="M1.7-34.4L1.7-35.4Q2.95-35.35 5.08-35.3 7.2-35.25 9.3-35.25L9.3-35.25Q11.7-35.25 13.95-35.3 16.2-35.35 17.15-35.35L17.15-35.35Q24.1-35.35 27.55-33.08 31-30.8 31-26.65L31-26.65Q31-24.95 30.3-23.23 29.6-21.5 27.93-20.03 26.25-18.55 23.35-17.68 20.45-16.8 16.05-16.8L16.05-16.8 11.25-16.8 11.25-17.8 15.55-17.8Q18.5-17.8 20.03-18.93 21.55-20.05 22.13-21.93 22.7-23.8 22.7-26.1L22.7-26.1Q22.7-30.05 21.3-32.23 19.9-34.4 16.5-34.4L16.5-34.4Q14.55-34.4 13.98-33.55 13.4-32.7 13.4-30.1L13.4-30.1 13.4-5.3Q13.4-3.5 13.68-2.6 13.95-1.7 14.75-1.4 15.55-1.1 17.15-1L17.15-1 17.15 0Q15.8-0.1 13.75-0.13 11.7-0.15 9.6-0.15L9.6-0.15Q7.2-0.15 5.08-0.13 2.95-0.1 1.7 0L1.7 0 1.7-1Q3.3-1.1 4.1-1.4 4.9-1.7 5.18-2.6 5.45-3.5 5.45-5.3L5.45-5.3 5.45-30.1Q5.45-31.95 5.18-32.83 4.9-33.7 4.08-34.02 3.25-34.35 1.7-34.4L1.7-34.4ZM11.25-16.8L11.15-17.65Q13.3-17.6 14.88-17.45 16.45-17.3 17.65-17.18 18.85-17.05 19.8-17L19.8-17Q24.35-16.6 26.53-15.05 28.7-13.5 29.35-10.4L29.35-10.4 30.5-5.25Q30.95-3.25 31.45-2.45 31.95-1.65 32.9-1.65L32.9-1.65Q33.55-1.7 33.98-1.98 34.4-2.25 34.9-2.8L34.9-2.8 35.6-2.2Q34.25-0.65 32.7 0.03 31.15 0.7 28.95 0.7L28.95 0.7Q26.25 0.7 24.5-0.45 22.75-1.6 22.2-4.7L22.2-4.7 21.3-9.7Q20.95-11.8 20.45-13.38 19.95-14.95 19.07-15.88 18.2-16.8 16.65-16.8L16.65-16.8 11.25-16.8ZM48.8-36.05L48.8-36.05Q51.75-36.05 53.35-35.43 54.95-34.8 56.1-34.1L56.1-34.1Q56.7-33.75 57.07-33.58 57.45-33.4 57.8-33.4L57.8-33.4Q58.6-33.4 58.9-35.6L58.9-35.6 60.05-35.6Q60-34.65 59.92-33.33 59.85-32 59.82-29.85 59.8-27.7 59.8-24.2L59.8-24.2 58.65-24.2Q58.45-26.8 57.45-29.25 56.45-31.7 54.62-33.27 52.8-34.85 50.15-34.85L50.15-34.85Q47.75-34.85 46.2-33.5 44.65-32.15 44.65-29.75L44.65-29.75Q44.65-27.75 45.65-26.33 46.65-24.9 48.57-23.55 50.5-22.2 53.25-20.3L53.25-20.3Q55.65-18.75 57.55-17.2 59.45-15.65 60.6-13.7 61.75-11.75 61.75-9.05L61.75-9.05Q61.75-5.75 60.02-3.6 58.3-1.45 55.5-0.38 52.7 0.7 49.35 0.7L49.35 0.7Q46.25 0.7 44.4 0.1 42.55-0.5 41.3-1.15L41.3-1.15Q40.2-1.85 39.6-1.85L39.6-1.85Q38.8-1.85 38.5 0.35L38.5 0.35 37.35 0.35Q37.45-0.85 37.47-2.45 37.5-4.05 37.52-6.63 37.55-9.2 37.55-13.15L37.55-13.15 38.7-13.15Q38.9-9.85 39.82-6.98 40.75-4.1 42.67-2.35 44.6-0.6 47.8-0.6L47.8-0.6Q50.4-0.6 52.2-2 54-3.4 54-6.2L54-6.2Q54-9.3 51.9-11.33 49.8-13.35 46.5-15.5L46.5-15.5Q44.15-17.05 42.1-18.6 40.05-20.15 38.82-22.15 37.6-24.15 37.6-26.9L37.6-26.9Q37.6-30.05 39.17-32.08 40.75-34.1 43.32-35.08 45.9-36.05 48.8-36.05ZM97.3-35.4L97.3-35.4 97.3-34.4Q96.2-34 94.97-32.65 93.75-31.3 92.7-28.45L92.7-28.45 82.15 0.1Q81.75 0.05 81.3 0.05 80.85 0.05 80.4 0.05L80.4 0.05Q80 0.05 79.55 0.05 79.1 0.05 78.7 0.1L78.7 0.1 65.95-31.2Q65.25-33 64.4-33.68 63.55-34.35 62.8-34.4L62.8-34.4 62.8-35.4Q64.3-35.35 66.32-35.3 68.35-35.25 70.4-35.25L70.4-35.25Q72.7-35.25 74.72-35.3 76.75-35.35 78-35.4L78-35.4 78-34.4Q75.55-34.3 74.8-33.58 74.05-32.85 75.1-30.2L75.1-30.2 84.2-7.05 83.15-5.8 90.05-24.4Q91.4-28.15 91.45-30.3 91.5-32.45 90.4-33.4 89.3-34.35 87.25-34.4L87.25-34.4 87.25-35.4Q88.95-35.35 90.45-35.3 91.95-35.25 93.5-35.25L93.5-35.25Q94.6-35.25 95.57-35.3 96.55-35.35 97.3-35.4Z" opacity="1" transform="matrix(1,0,0,1,0,0)" fill="#000000" class="wordmark-text-0" data-fill-palette-color="primary" id="text-0"></path></svg></g></svg></g></svg></g></svg></g><g></g></svg></g></svg></g></svg></g></svg></g><defs></defs></svg><rect width="320" height="360" fill="none" stroke="none" visibility="hidden"></rect></g></svg></g></svg>